<svg xmlns="http://www.w3.org/2000/svg" xmlns:xlink="http://www.w3.org/1999/xlink" version="1.1" data-diagram-type="SALT" style="width:757px;height:261px;background:#FFFFFF;" width="757px" height="261px" viewBox="0 0 757 261" zoomAndPan="magnify" preserveAspectRatio="none" contentStyleType="text/css"><?plantuml 1.2026.7beta5?><defs/><g font-family="sans-serif" lengthAdjust="spacing"><text x="6" y="17.139" fill="#000" font-size="12" textLength="121.336" font-weight="700">Portal del Alumno</text><text x="581.857" y="17.139" fill="#000" font-size="12" textLength="168.492">Editar Solicitud de Dispensa</text><line x1="6" y1="24.469" x2="580.857" y2="24.469" style="stroke:#AAA;stroke-width:1;"/><line x1="6" y1="26.469" x2="580.857" y2="26.469" style="stroke:#AAA;stroke-width:1;"/><text x="7" y="42.107" fill="#000" font-size="12" textLength="76.096" font-weight="700">ID Trámite:</text><text x="106.875" y="42.107" fill="#000" font-size="12" textLength="86.197">DSP-2026-089</text><text x="7" y="58.076" fill="#000" font-size="12" textLength="97.875" font-weight="700">Estado Actual:</text><text x="106.875" y="58.076" fill="#FFA500" font-size="12" textLength="66.861" font-weight="700">Solicitada</text><line x1="6" y1="67.406" x2="580.857" y2="67.406" style="stroke:#AAA;stroke-width:1;"/><text x="6" y="83.045" fill="#000" font-size="12" textLength="251.736" font-weight="700">Modificar Información de la Dispensa</text><text x="7" y="100.014" fill="#000" font-size="12" textLength="159.557">Asignatura de la dispensa:</text><rect x="172.857" y="88.875" width="215" height="16.969" fill="#EEE" style="stroke:#000;stroke-width:1;"/><text x="174.857" y="102.014" fill="#000" font-size="12" textLength="146.982">Ingeniería de Software II</text><line x1="376.857" y1="88.875" x2="376.857" y2="105.844" style="stroke:#000;stroke-width:1;"/><polygon points="379.857,94.875,385.857,94.875,382.857,100.844" fill="#000" style="stroke:#000;stroke-width:1;stroke-linejoin:miter;stroke-miterlimit:10;"/><text x="7" y="119.982" fill="#000" font-size="12" textLength="149.93">Tipo/Motivo de dispensa:</text><rect x="172.857" y="108.844" width="207" height="16.969" fill="#EEE" style="stroke:#000;stroke-width:1;"/><text x="174.857" y="121.982" fill="#000" font-size="12" textLength="154.4">Solapamiento de horarios</text><line x1="368.857" y1="108.844" x2="368.857" y2="125.813" style="stroke:#000;stroke-width:1;"/><polygon points="371.857,114.844,377.857,114.844,374.857,120.813" fill="#000" style="stroke:#000;stroke-width:1;stroke-linejoin:miter;stroke-miterlimit:10;"/><text x="7" y="139.951" fill="#000" font-size="12" textLength="124.354">Día(s) de la semana:</text><rect x="172.857" y="128.813" width="87" height="16.969" fill="#EEE" style="stroke:#000;stroke-width:1;"/><text x="174.857" y="141.951" fill="#000" font-size="12" textLength="56.912">Miércoles</text><line x1="248.857" y1="128.813" x2="248.857" y2="145.781" style="stroke:#000;stroke-width:1;"/><polygon points="251.857,134.813,257.857,134.813,254.857,140.781" fill="#000" style="stroke:#000;stroke-width:1;stroke-linejoin:miter;stroke-miterlimit:10;"/><text x="7" y="159.92" fill="#000" font-size="12" textLength="144.598">Franja horaria afectada:</text><text x="175.857" y="159.92" fill="#000" font-size="12" textLength="81.123">10:00 - 12:00</text><line x1="173.857" y1="162.75" x2="312.857" y2="162.75" style="stroke:#000;stroke-width:1;"/><line x1="173.857" y1="159.75" x2="173.857" y2="161.75" style="stroke:#000;stroke-width:1;"/><line x1="312.857" y1="159.75" x2="312.857" y2="161.75" style="stroke:#000;stroke-width:1;"/><text x="7" y="177.889" fill="#000" font-size="12" textLength="127.049">Asignatura solapada:</text><rect x="172.857" y="166.75" width="207" height="16.969" fill="#EEE" style="stroke:#000;stroke-width:1;"/><text x="174.857" y="179.889" fill="#000" font-size="12" textLength="150.984">Arquitectura de Software</text><line x1="368.857" y1="166.75" x2="368.857" y2="183.719" style="stroke:#000;stroke-width:1;"/><polygon points="371.857,172.75,377.857,172.75,374.857,178.719" fill="#000" style="stroke:#000;stroke-width:1;stroke-linejoin:miter;stroke-miterlimit:10;"/><text x="7" y="197.857" fill="#000" font-size="12" textLength="163.857">Justificación / Comentarios:</text><text x="175.857" y="197.857" fill="#000" font-size="12" textLength="247.875">Solapamiento debido a cambio de grupo.</text><line x1="173.857" y1="200.688" x2="576.857" y2="200.688" style="stroke:#000;stroke-width:1;"/><line x1="173.857" y1="197.688" x2="173.857" y2="199.688" style="stroke:#000;stroke-width:1;"/><line x1="576.857" y1="197.688" x2="576.857" y2="199.688" style="stroke:#000;stroke-width:1;"/><text x="7" y="215.826" fill="#000" font-size="12" textLength="122.93">Documento adjunto:</text><text x="172.857" y="215.826" fill="#000" font-size="12" textLength="300.088">[ Reemplazar Archivo... ] resguardo_matricula.pdf</text><line x1="6" y1="225.156" x2="580.857" y2="225.156" style="stroke:#AAA;stroke-width:1;"/><rect x="9.5" y="233.156" width="140" height="17.969" fill="#EEE" style="stroke:#000;stroke-width:2.5;" rx="5" ry="5"/><text x="21.155" y="246.295" fill="#000" font-size="12" textLength="116.689" font-weight="700">Guardar Cambios</text><rect x="156.5" y="233.156" width="188" height="17.969" fill="#EEE" style="stroke:#000;stroke-width:2.5;" rx="5" ry="5"/><text x="193.233" y="246.295" fill="#000" font-size="12" textLength="114.533">Descartar Cambios</text><line x1="5" y1="5" x2="580.857" y2="5" style="stroke:#000;stroke-width:1;"/><line x1="580.857" y1="5" x2="751.35" y2="5" style="stroke:#000;stroke-width:1;"/><line x1="5" y1="255.625" x2="580.857" y2="255.625" style="stroke:#000;stroke-width:1;"/><line x1="580.857" y1="255.625" x2="751.35" y2="255.625" style="stroke:#000;stroke-width:1;"/><line x1="5" y1="5" x2="5" y2="20.969" style="stroke:#000;stroke-width:1;"/><line x1="751.35" y1="28.969" x2="751.35" y2="62.906" style="stroke:#000;stroke-width:1;"/><line x1="751.35" y1="5" x2="751.35" y2="20.969" style="stroke:#000;stroke-width:1;"/><line x1="5" y1="228.656" x2="5" y2="255.625" style="stroke:#000;stroke-width:1;"/><line x1="5" y1="86.875" x2="5" y2="220.656" style="stroke:#000;stroke-width:1;"/><line x1="751.35" y1="228.656" x2="751.35" y2="255.625" style="stroke:#000;stroke-width:1;"/><line x1="5" y1="62.906" x2="5" y2="70.906" style="stroke:#000;stroke-width:1;"/><line x1="751.35" y1="86.875" x2="751.35" y2="220.656" style="stroke:#000;stroke-width:1;"/><line x1="5" y1="20.969" x2="5" y2="28.969" style="stroke:#000;stroke-width:1;"/><line x1="751.35" y1="62.906" x2="751.35" y2="70.906" style="stroke:#000;stroke-width:1;"/><line x1="751.35" y1="20.969" x2="751.35" y2="28.969" style="stroke:#000;stroke-width:1;"/><line x1="5" y1="220.656" x2="5" y2="228.656" style="stroke:#000;stroke-width:1;"/><line x1="5" y1="70.906" x2="5" y2="86.875" style="stroke:#000;stroke-width:1;"/><line x1="751.35" y1="220.656" x2="751.35" y2="228.656" style="stroke:#000;stroke-width:1;"/><line x1="5" y1="28.969" x2="5" y2="62.906" style="stroke:#000;stroke-width:1;"/><line x1="751.35" y1="70.906" x2="751.35" y2="86.875" style="stroke:#000;stroke-width:1;"/><?plantuml-src NLBRQjmm47tVhnZor5BMwrtepMoMc3WjBYo4Rjv2KiQIl56GB5UN5fhaO_BOXpxb4_R7CfAzpHA3BD3CcNFEp9muZzOxL7vozsu2i6nMvyPwLC25Wb85tHcuXpCkAGysHaacVU0KXKgwNdGE2NLyJByxEgb0NS65tJrgwKL1s6fpFbtaYm_J_DFdVSePqN839VC1LKoYjoKpojZ2MEosOZLI8SVbB0LMX7sWCvqECjU6orOoKbLthR4QcTmzTL6OmaDjWwpIoMs7FbWSC_YO4SclQsBifB2xVocyCQt_ZLP0NLydz8NipMnjlFnbOlm52n5DKh57BKNdK_Y6B5Xft82jgEWRztQaTK9Zbu0mWDTozzUIGJ6cVo7xjpZMGC1MiDY4WUfedXTv3bEOB-9Dtz5hTow9uOSKfVqPQ1PixtvlRo3y5fnFZHpwDuDJeyb9Sb0GvIjtZQIv8J3KZKnkjpRq9eE3Rz1K6HPq0Y6_3NGN_nFkuHA-2w5xXNzeVgLbDzJPBClW2gnmsu2McnyQlPKiACnwtXuEVvZePLo2hp6LIfmcEMuvQrPK8zOd0SBHTlYNABrTfJeFanFHyRJqataMTpFxs0YFxvy1?></g></svg>