<svg xmlns="http://www.w3.org/2000/svg" xmlns:xlink="http://www.w3.org/1999/xlink" contentStyleType="text/css" data-diagram-type="STATE" height="714px" preserveAspectRatio="none" style="width:589px;height:714px;background:#FFFFFF;" version="1.1" viewBox="0 0 589 714" width="589px" zoomAndPan="magnify"><title>Cerrar Sesi&#243;n Clase</title><defs/><g><g class="title" data-source-line="1"><text fill="#000000" font-family="sans-serif" font-size="14" font-weight="bold" lengthAdjust="spacing" textLength="140.4102" x="217.6599" y="23.5352">Cerrar Sesi&#243;n Clase</text></g><g id="SESION_ACTUAL_INICIAL"><rect fill="#F1F1F1" height="50" rx="12.5" ry="12.5" style="stroke:#181818;stroke-width:0.5;" width="217.5518" x="74.95" y="124.4883"/><line style="stroke:#181818;stroke-width:0.5;" x1="74.95" x2="292.5018" y1="150.9766" y2="150.9766"/><text fill="#000000" font-family="sans-serif" font-size="14" lengthAdjust="spacing" textLength="197.5518" x="84.95" y="143.0234">SESION_ASISTENCIA_ABIERTA</text></g><path d="M19.5,286.4883 L347.96,286.4883 A12.5,12.5 0 0 1 360.46,298.9883 L360.46,312.9766 L7,312.9766 L7,298.9883 A12.5,12.5 0 0 1 19.5,286.4883" fill="#F1F1F1"/><rect fill="none" height="262.4883" rx="12.5" ry="12.5" style="stroke:#181818;stroke-width:0.5;" width="353.46" x="7" y="286.4883"/><line style="stroke:#181818;stroke-width:0.5;" x1="7" x2="360.46" y1="312.9766" y2="312.9766"/><text fill="#000000" font-family="sans-serif" font-size="14" lengthAdjust="spacing" textLength="147.7861" x="109.8369" y="305.0234">FINALIZANDO_SESION</text><g id="PROCESO_CIERRE_COMP.CierreRegistro"><rect fill="#F1F1F1" height="50" rx="12.5" ry="12.5" style="stroke:#181818;stroke-width:0.5;" width="116.9199" x="19" y="429.9766"/><line style="stroke:#181818;stroke-width:0.5;" x1="19" x2="135.9199" y1="456.4648" y2="456.4648"/><text fill="#000000" font-family="sans-serif" font-size="14" lengthAdjust="spacing" textLength="96.9199" x="29" y="448.5117">CierreRegistro</text></g><ellipse cx="77.46" cy="333.9766" fill="#222222" rx="10" ry="10" style="stroke:#222222;stroke-width:1;"/><ellipse cx="77.46" cy="527.9766" fill="none" rx="11" ry="11" style="stroke:#222222;stroke-width:1;"/><ellipse cx="77.46" cy="527.9766" fill="#222222" rx="6" ry="6" style="stroke:#222222;stroke-width:1;"/><!--link *start*PROCESO_CIERRE_COMP to CierreRegistro--><g class="link" data-entity-1=".start.PROCESO_CIERRE_COMP" data-entity-2="CierreRegistro" data-source-line="19" data-uid="lnk6" id="link_.start.PROCESO_CIERRE_COMP_CierreRegistro"><path d="M77.46,344.3166 C77.46,362.5066 77.46,397.2166 77.46,423.5866" fill="none" id="*start*PROCESO_CIERRE_COMP-to-CierreRegistro" style="stroke:#008000;stroke-width:1;"/><polygon fill="#008000" points="77.46,429.5866,81.46,420.5866,77.46,424.5866,73.46,420.5866,77.46,429.5866" style="stroke:#008000;stroke-width:1;"/><path d="M82.46,366.9766 L82.46,406.9766 L351.46,406.9766 L351.46,376.9766 L341.46,366.9766 L82.46,366.9766" fill="#FEFFDD" style="stroke:#181818;stroke-width:0.5;"/><path d="M341.46,366.9766 L341.46,376.9766 L351.46,376.9766 L341.46,366.9766" fill="#FEFFDD" style="stroke:#181818;stroke-width:0.5;"/><text fill="#000000" font-family="sans-serif" font-size="13" font-weight="bold" lengthAdjust="spacing" textLength="52.1396" x="88.46" y="384.5449">Sistema</text><text fill="#000000" font-family="sans-serif" font-size="13" lengthAdjust="spacing" textLength="192.1816" x="144.7129" y="384.5449">registra la hora de finalizaci&#243;n</text><text fill="#000000" font-family="sans-serif" font-size="13" lengthAdjust="spacing" textLength="216.271" x="88.46" y="399.8555">y marca la sesi&#243;n como concluida.</text></g><!--link CierreRegistro to *end*PROCESO_CIERRE_COMP--><g class="link" data-entity-1="CierreRegistro" data-entity-2=".end.PROCESO_CIERRE_COMP" data-source-line="25" data-uid="lnk8" id="link_CierreRegistro_.end.PROCESO_CIERRE_COMP"><path d="M77.46,480.4066 C77.46,492.7666 77.46,501.1066 77.46,510.5766" fill="none" id="CierreRegistro-to-*end*PROCESO_CIERRE_COMP" style="stroke:#008000;stroke-width:1;"/><polygon fill="#008000" points="77.46,516.5766,81.46,507.5766,77.46,511.5766,73.46,507.5766,77.46,516.5766" style="stroke:#008000;stroke-width:1;"/></g><g id="ASISTENCIAS_FINAL"><rect fill="#F1F1F1" height="50" rx="12.5" ry="12.5" style="stroke:#181818;stroke-width:0.5;" width="171.3887" x="98.04" y="658.9783"/><line style="stroke:#181818;stroke-width:0.5;" x1="98.04" x2="269.4287" y1="685.4666" y2="685.4666"/><text fill="#000000" font-family="sans-serif" font-size="14" lengthAdjust="spacing" textLength="151.3887" x="108.04" y="677.5134">ASISTENCIAS_ABIERTO</text></g><ellipse cx="183.73" cy="53.4883" fill="#222222" rx="10" ry="10" style="stroke:#222222;stroke-width:1;"/><!--link *start* to SESION_ACTUAL_INICIAL--><g class="link" data-entity-1=".start." data-entity-2="SESION_ACTUAL_INICIAL" data-source-line="8" data-uid="lnk3" id="link_.start._SESION_ACTUAL_INICIAL"><path d="M183.73,63.8483 C183.73,77.7783 183.73,98.4483 183.73,118.1383" fill="none" id="*start*-to-SESION_ACTUAL_INICIAL" style="stroke:#008000;stroke-width:1;"/><polygon fill="#008000" points="183.73,124.1383,187.73,115.1383,183.73,119.1383,179.73,115.1383,183.73,124.1383" style="stroke:#008000;stroke-width:1;"/></g><!--link SESION_ACTUAL_INICIAL to PROCESO_CIERRE_COMP--><g class="link" data-entity-1="SESION_ACTUAL_INICIAL" data-entity-2="PROCESO_CIERRE_COMP" data-source-line="10" data-uid="lnk4" id="link_SESION_ACTUAL_INICIAL_PROCESO_CIERRE_COMP"><path d="M183.73,174.5883 C183.73,200.3783 183.73,237.3783 183.73,280.0383" fill="none" id="SESION_ACTUAL_INICIAL-to-PROCESO_CIERRE_COMP" style="stroke:#008000;stroke-width:1;"/><polygon fill="#008000" points="183.73,286.0383,187.73,277.0383,183.73,281.0383,179.73,277.0383,183.73,286.0383" style="stroke:#008000;stroke-width:1;"/><text fill="#000000" font-family="sans-serif" font-size="13" lengthAdjust="spacing" textLength="119.9771" x="265.2456" y="218.0566">cerrarSesionClase()</text><path d="M188.73,226.7988 L188.73,251.7988 L461.73,251.7988 L461.73,236.7988 L451.73,226.7988 L188.73,226.7988" fill="#FEFFDD" style="stroke:#181818;stroke-width:0.5;"/><path d="M451.73,226.7988 L451.73,236.7988 L461.73,236.7988 L451.73,226.7988" fill="#FEFFDD" style="stroke:#181818;stroke-width:0.5;"/><text fill="#000000" font-family="sans-serif" font-size="13" font-weight="bold" lengthAdjust="spacing" textLength="56.7544" x="194.73" y="244.3672">Profesor</text><text fill="#000000" font-family="sans-serif" font-size="13" lengthAdjust="spacing" textLength="191.1406" x="255.5977" y="244.3672">solicita cerrar la sesi&#243;n actual.</text></g><!--link PROCESO_CIERRE_COMP to ASISTENCIAS_FINAL--><g class="link" data-entity-1="PROCESO_CIERRE_COMP" data-entity-2="ASISTENCIAS_FINAL" data-source-line="28" data-uid="lnk9" id="link_PROCESO_CIERRE_COMP_ASISTENCIAS_FINAL"><path d="M183.73,549.3083 C183.73,591.1783 183.73,627.2483 183.73,652.7183" fill="none" id="PROCESO_CIERRE_COMP-to-ASISTENCIAS_FINAL" style="stroke:#008000;stroke-width:1;"/><polygon fill="#008000" points="183.73,658.7183,187.73,649.7183,183.73,653.7183,179.73,649.7183,183.73,658.7183" style="stroke:#008000;stroke-width:1;"/><path d="M188.73,583.9783 L188.73,623.9783 L582.73,623.9783 L582.73,593.9783 L572.73,583.9783 L188.73,583.9783" fill="#FEFFDD" style="stroke:#181818;stroke-width:0.5;"/><path d="M572.73,583.9783 L572.73,593.9783 L582.73,593.9783 L572.73,583.9783" fill="#FEFFDD" style="stroke:#181818;stroke-width:0.5;"/><text fill="#000000" font-family="sans-serif" font-size="13" font-weight="bold" lengthAdjust="spacing" textLength="52.1396" x="194.73" y="601.5466">Sistema</text><text fill="#000000" font-family="sans-serif" font-size="13" lengthAdjust="spacing" textLength="189.6616" x="250.9829" y="601.5466">confirma el cierre de la sesi&#243;n</text><text fill="#000000" font-family="sans-serif" font-size="13" lengthAdjust="spacing" textLength="373.0962" x="194.73" y="616.8572">y muestra nuevamente el listado en ASISTENCIAS_ABIERTO.</text></g><!--SRC=[VPBHIiCm58RlprCSveqAqtkHGQqL2hCTwxnHHZdhpZIO9YFfX2a-bO_WYvca6-kqUDEGdF-SVF_VDAAHZ34RGmOBjkBxIs4ioJBOLw7MPAX6AHGtspNZMikjtm3OXXh68YdIF2kZUFOGZSiqI-Cq6YDP7EmhHLhCaimTbz5DcandqM3NEfdcSLBaPUnEfqaPv_SJnD1wbsRHE7sCijkyRCViUmxJYZAe47SztKfxKJu0U3gVu_3fvDamg_bmr8yBqE-YszW7UuLLICs7fbM8xFGCb7QSMld8Nk5wCPeOlMAhpVNbOeHMIr69XdQTA0djBdAgcWt92s2rH3y3_edf0y3xRWMnSBDuoi_2DaQtbT- -Vscyv8ZJ7pZMmfMvfe1gMZ5vnXVjrYNZIYYIufqgJnoQjbYJgQXhfDArTXzLoOrOqaMG7KpvtJ7D4QW3Xq-0FjDTsPzty2VshXK7inAc9cI9LRZRcpaWWtEnuM1MRVYDQbPkc1DBDuIMsk5Zp_lg_AiV]--></g></svg>