<svg xmlns="http://www.w3.org/2000/svg" xmlns:xlink="http://www.w3.org/1999/xlink" version="1.1" data-diagram-type="SALT" style="width:713px;height:271px;background:#FFFFFF;" width="713px" height="271px" viewBox="0 0 713 271" zoomAndPan="magnify" preserveAspectRatio="none" contentStyleType="text/css"><?plantuml 1.2026.7beta5?><defs/><g font-family="sans-serif" lengthAdjust="spacing"><text x="6" y="17.139" fill="#000" font-size="12" textLength="191.027" font-weight="700">Portal del Director de Grado</text><text x="589.857" y="17.139" fill="#000" font-size="12" textLength="116.361">Consultar Dispensa</text><line x1="6" y1="24.469" x2="588.857" y2="24.469" style="stroke:#AAA;stroke-width:1;"/><line x1="6" y1="26.469" x2="588.857" y2="26.469" style="stroke:#AAA;stroke-width:1;"/><text x="7" y="42.107" fill="#000" font-size="12" textLength="76.096" font-weight="700">ID Trámite:</text><text x="106.875" y="42.107" fill="#000" font-size="12" textLength="86.197">DSP-2026-089</text><text x="7" y="58.076" fill="#000" font-size="12" textLength="97.875" font-weight="700">Estado Actual:</text><text x="106.875" y="58.076" fill="#FFA500" font-size="12" textLength="151.178" font-weight="700">Pendiente de Revisión</text><line x1="6" y1="67.406" x2="588.857" y2="67.406" style="stroke:#AAA;stroke-width:1;"/><text x="6" y="83.045" fill="#000" font-size="12" textLength="181.688" font-weight="700">Información de la Solicitud</text><text x="7" y="100.014" fill="#000" font-size="12" textLength="116.953">Alumno Solicitante:</text><text x="175.857" y="100.014" fill="#000" font-size="12" textLength="95.361">Carlos Mendoza</text><line x1="173.857" y1="102.844" x2="376.857" y2="102.844" style="stroke:#000;stroke-width:1;"/><line x1="173.857" y1="99.844" x2="173.857" y2="101.844" style="stroke:#000;stroke-width:1;"/><line x1="376.857" y1="99.844" x2="376.857" y2="101.844" style="stroke:#000;stroke-width:1;"/><text x="7" y="117.982" fill="#000" font-size="12" textLength="159.557">Asignatura de la dispensa:</text><text x="175.857" y="117.982" fill="#000" font-size="12" textLength="146.982">Ingeniería de Software II</text><line x1="173.857" y1="120.813" x2="376.857" y2="120.813" style="stroke:#000;stroke-width:1;"/><line x1="173.857" y1="117.813" x2="173.857" y2="119.813" style="stroke:#000;stroke-width:1;"/><line x1="376.857" y1="117.813" x2="376.857" y2="119.813" style="stroke:#000;stroke-width:1;"/><text x="7" y="135.951" fill="#000" font-size="12" textLength="149.93">Tipo/Motivo de dispensa:</text><text x="175.857" y="135.951" fill="#000" font-size="12" textLength="154.4">Solapamiento de horarios</text><line x1="173.857" y1="138.781" x2="368.857" y2="138.781" style="stroke:#000;stroke-width:1;"/><line x1="173.857" y1="135.781" x2="173.857" y2="137.781" style="stroke:#000;stroke-width:1;"/><line x1="368.857" y1="135.781" x2="368.857" y2="137.781" style="stroke:#000;stroke-width:1;"/><text x="7" y="153.92" fill="#000" font-size="12" textLength="124.354">Día(s) de la semana:</text><text x="175.857" y="153.92" fill="#000" font-size="12" textLength="56.912">Miércoles</text><line x1="173.857" y1="156.75" x2="248.857" y2="156.75" style="stroke:#000;stroke-width:1;"/><line x1="173.857" y1="153.75" x2="173.857" y2="155.75" style="stroke:#000;stroke-width:1;"/><line x1="248.857" y1="153.75" x2="248.857" y2="155.75" style="stroke:#000;stroke-width:1;"/><text x="7" y="171.889" fill="#000" font-size="12" textLength="144.598">Franja horaria afectada:</text><text x="175.857" y="171.889" fill="#000" font-size="12" textLength="81.123">10:00 - 12:00</text><line x1="173.857" y1="174.719" x2="312.857" y2="174.719" style="stroke:#000;stroke-width:1;"/><line x1="173.857" y1="171.719" x2="173.857" y2="173.719" style="stroke:#000;stroke-width:1;"/><line x1="312.857" y1="171.719" x2="312.857" y2="173.719" style="stroke:#000;stroke-width:1;"/><text x="7" y="189.857" fill="#000" font-size="12" textLength="127.049">Asignatura solapada:</text><text x="175.857" y="189.857" fill="#000" font-size="12" textLength="150.984">Arquitectura de Software</text><line x1="173.857" y1="192.688" x2="368.857" y2="192.688" style="stroke:#000;stroke-width:1;"/><line x1="173.857" y1="189.688" x2="173.857" y2="191.688" style="stroke:#000;stroke-width:1;"/><line x1="368.857" y1="189.688" x2="368.857" y2="191.688" style="stroke:#000;stroke-width:1;"/><text x="7" y="207.826" fill="#000" font-size="12" textLength="163.857">Justificación / Comentarios:</text><text x="175.857" y="207.826" fill="#000" font-size="12" textLength="305.525">Solapamiento con otra asignatura de igual crédito.</text><line x1="173.857" y1="210.656" x2="584.857" y2="210.656" style="stroke:#000;stroke-width:1;"/><line x1="173.857" y1="207.656" x2="173.857" y2="209.656" style="stroke:#000;stroke-width:1;"/><line x1="584.857" y1="207.656" x2="584.857" y2="209.656" style="stroke:#000;stroke-width:1;"/><text x="7" y="225.795" fill="#000" font-size="12" textLength="122.93">Documento adjunto:</text><text x="172.857" y="225.795" fill="#000" font-size="12" textLength="264.943">[ Descargar y Ver ] resguardo_matricula.pdf</text><line x1="6" y1="235.125" x2="588.857" y2="235.125" style="stroke:#AAA;stroke-width:1;"/><rect x="9.5" y="243.125" width="172" height="17.969" fill="#EEE" style="stroke:#000;stroke-width:2.5;" rx="5" ry="5"/><text x="50.143" y="256.264" fill="#000" font-size="12" textLength="90.715">Cerrar Detalles</text><line x1="5" y1="5" x2="588.857" y2="5" style="stroke:#000;stroke-width:1;"/><line x1="588.857" y1="5" x2="707.219" y2="5" style="stroke:#000;stroke-width:1;"/><line x1="5" y1="265.594" x2="588.857" y2="265.594" style="stroke:#000;stroke-width:1;"/><line x1="588.857" y1="265.594" x2="707.219" y2="265.594" style="stroke:#000;stroke-width:1;"/><line x1="5" y1="5" x2="5" y2="20.969" style="stroke:#000;stroke-width:1;"/><line x1="707.219" y1="28.969" x2="707.219" y2="62.906" style="stroke:#000;stroke-width:1;"/><line x1="707.219" y1="5" x2="707.219" y2="20.969" style="stroke:#000;stroke-width:1;"/><line x1="5" y1="238.625" x2="5" y2="265.594" style="stroke:#000;stroke-width:1;"/><line x1="5" y1="86.875" x2="5" y2="230.625" style="stroke:#000;stroke-width:1;"/><line x1="707.219" y1="238.625" x2="707.219" y2="265.594" style="stroke:#000;stroke-width:1;"/><line x1="5" y1="62.906" x2="5" y2="70.906" style="stroke:#000;stroke-width:1;"/><line x1="707.219" y1="86.875" x2="707.219" y2="230.625" style="stroke:#000;stroke-width:1;"/><line x1="5" y1="20.969" x2="5" y2="28.969" style="stroke:#000;stroke-width:1;"/><line x1="707.219" y1="62.906" x2="707.219" y2="70.906" style="stroke:#000;stroke-width:1;"/><line x1="707.219" y1="20.969" x2="707.219" y2="28.969" style="stroke:#000;stroke-width:1;"/><line x1="5" y1="230.625" x2="5" y2="238.625" style="stroke:#000;stroke-width:1;"/><line x1="5" y1="70.906" x2="5" y2="86.875" style="stroke:#000;stroke-width:1;"/><line x1="707.219" y1="230.625" x2="707.219" y2="238.625" style="stroke:#000;stroke-width:1;"/><line x1="5" y1="28.969" x2="5" y2="62.906" style="stroke:#000;stroke-width:1;"/><line x1="707.219" y1="70.906" x2="707.219" y2="86.875" style="stroke:#000;stroke-width:1;"/><?plantuml-src RLDDQzj04BtxLmmvjHJPig5VnZ4nLbjKC9Wwz192cUokt0sh7NTsbT8c-J4vvj1JVuB_M4ShEKbB1Qj5E_FUp9jzEWaHEGPqSN3zOW0mkvYlYICwqCP1OTceI2mVy85H4zp0adnedA0a6dR61nJOyR6yhcKbXhA0KzxVrJQQgI2ApJgRv9DNMVxcxI7bdTGLkeMA3ResISvcYXpnb1ZzripNncjhV3HjyK_coWQx_-rdevGq5vvRMLdMzLpwYhX6rQQq-GvXGyug6nlzqDd2DRMdGm1zrztH4jbHW9NKevy8ZyzHXmfswp4sZ3snxcKdS2cjUcju_ok5DrJ5xyW6oh93dzeTZLOKxHMryKSij6Xf1NTOjp9J-AjePqkXmnP2-Ymyxyi6KwDFGEZ0Axk_Pvc6wTFVozmkiUT0m4gk3lMXr3YVvZbaC9wq-__KXTICVbfYmTyQkKHrK7-Grs4_DY7Qogf-x2EnHYrAaeBfl-eKUQ0eDFZNFErMxXyKx--rZJJikof8DNM2eRviP9y-NCeDd45XWaBUYWL_m6V3S0viWX2nfYyrHhQgSJZSwUgfIpeFdCbQ6kRMlaPiBjEJa_EKU3iu4G-aVs4m7hQE7Rw-aAINVm00?></g></svg>