<svg xmlns="http://www.w3.org/2000/svg" xmlns:xlink="http://www.w3.org/1999/xlink" contentStyleType="text/css" data-diagram-type="DESCRIPTION" height="432px" preserveAspectRatio="none" style="width:354px;height:432px;background:#FFFFFF;" version="1.1" viewBox="0 0 354 432" width="354px" zoomAndPan="magnify"><defs/><g><!--cluster Dispensas--><g class="cluster" data-qualified-name="Dispensas" data-source-line="6" id="ent0003"><rect fill="none" height="419" rx="2.5" ry="2.5" style="stroke:#181818;stroke-width:1;" width="245.21" x="103.42" y="7"/><text fill="#000000" font-family="sans-serif" font-size="14" font-weight="bold" lengthAdjust="spacing" textLength="80.3496" x="185.8502" y="21.9951">Dispensas</text></g><!--entity CrearSolicitudDispensa--><g class="entity" data-qualified-name="Dispensas.CrearSolicitudDispensa" data-source-line="7" id="ent0004"><ellipse cx="226.0231" cy="387.9966" fill="#F1F1F1" rx="97.9831" ry="21.9966" style="stroke:#181818;stroke-width:0.5;"/><text fill="#000000" font-family="sans-serif" font-size="14" lengthAdjust="spacing" textLength="171.6025" x="140.2218" y="392.6451">crearSolicitudDispensa()</text></g><!--entity ConsultarEstadoDispensa--><g class="entity" data-qualified-name="Dispensas.ConsultarEstadoDispensa" data-source-line="8" id="ent0005"><ellipse cx="226.0227" cy="308.0025" fill="#F1F1F1" rx="105.3627" ry="23.4725" style="stroke:#181818;stroke-width:0.5;"/><text fill="#000000" font-family="sans-serif" font-size="14" lengthAdjust="spacing" textLength="187.8105" x="132.1174" y="312.651">consultarEstadoDispensa()</text></g><!--entity EditarSolicitudDispensa--><g class="entity" data-qualified-name="Dispensas.EditarSolicitudDispensa" data-source-line="9" id="ent0006"><ellipse cx="226.0222" cy="227.0024" fill="#F1F1F1" rx="100.1622" ry="22.4324" style="stroke:#181818;stroke-width:0.5;"/><text fill="#000000" font-family="sans-serif" font-size="14" lengthAdjust="spacing" textLength="176.415" x="137.8147" y="231.6509">editarSolicitudDispensa()</text></g><!--entity CerrarSolicitudDispensa--><g class="entity" data-qualified-name="Dispensas.CerrarSolicitudDispensa" data-source-line="10" id="ent0007"><ellipse cx="226.0206" cy="146.9981" fill="#F1F1F1" rx="100.5906" ry="22.5181" style="stroke:#181818;stroke-width:0.5;"/><text fill="#000000" font-family="sans-serif" font-size="14" lengthAdjust="spacing" textLength="177.3584" x="137.3414" y="151.6466">cerrarSolicitudDispensa()</text></g><!--entity GuardarSolicitudDispensa--><g class="entity" data-qualified-name="Dispensas.GuardarSolicitudDispensa" data-source-line="11" id="ent0008"><ellipse cx="226.0158" cy="66.0012" fill="#F1F1F1" rx="106.6058" ry="23.7212" style="stroke:#181818;stroke-width:0.5;"/><text fill="#000000" font-family="sans-serif" font-size="14" lengthAdjust="spacing" textLength="190.5176" x="130.757" y="70.6496">guardarSolicitudDispensa()</text></g><!--entity Alumno--><g class="entity" data-qualified-name="Alumno" data-source-line="4" id="ent0002"><ellipse cx="32.708" cy="197.35" fill="#F1F1F1" rx="8" ry="8" style="stroke:#181818;stroke-width:0.5;"/><path d="M32.708,205.35 L32.708,232.35 M19.708,213.35 L45.708,213.35 M32.708,232.35 L19.708,247.35 M32.708,232.35 L45.708,247.35" fill="none" style="stroke:#181818;stroke-width:0.5;"/><text fill="#000000" font-family="sans-serif" font-size="14" lengthAdjust="spacing" textLength="53.416" x="6" y="261.8451">Alumno</text></g><!--link Alumno to CrearSolicitudDispensa--><g class="link" data-entity-1="ent0002" data-entity-2="ent0004" data-link-type="dependency" data-source-line="16" id="lnk9"><path d="M44.25,265.44 C53.53,292.43 69.67,327.43 95.42,349 C109.73,361 121.9481,367.463 139.8581,373.223" fill="none" id="Alumno-to-CrearSolicitudDispensa" style="stroke:#181818;stroke-width:1;"/><polygon fill="#181818" points="145.57,375.06,138.2268,368.4966,140.8101,373.5292,135.7775,376.1124,145.57,375.06" style="stroke:#181818;stroke-width:1;"/></g><!--link Alumno to ConsultarEstadoDispensa--><g class="link" data-entity-1="ent0002" data-entity-2="ent0005" data-link-type="dependency" data-source-line="17" id="lnk10"><path d="M59.83,246.16 C70.49,253.38 83.18,261.23 95.42,267 C114.63,276.06 130.6208,282.0377 150.7108,288.2877" fill="none" id="Alumno-to-ConsultarEstadoDispensa" style="stroke:#181818;stroke-width:1;"/><polygon fill="#181818" points="156.44,290.07,149.0345,283.577,151.6657,288.5847,146.658,291.2159,156.44,290.07" style="stroke:#181818;stroke-width:1;"/></g><!--link Alumno to EditarSolicitudDispensa--><g class="link" data-entity-1="ent0002" data-entity-2="ent0006" data-link-type="dependency" data-source-line="18" id="lnk11"><path d="M59.91,227 C77.31,227 95.35,227 119.72,227" fill="none" id="Alumno-to-EditarSolicitudDispensa" style="stroke:#181818;stroke-width:1;"/><polygon fill="#181818" points="125.72,227,116.72,223,120.72,227,116.72,231,125.72,227" style="stroke:#181818;stroke-width:1;"/></g><!--link Alumno to CerrarSolicitudDispensa--><g class="link" data-entity-1="ent0002" data-entity-2="ent0007" data-link-type="dependency" data-source-line="19" id="lnk12"><path d="M59.81,207.8 C70.47,200.57 83.16,192.73 95.42,187 C115.04,177.83 131.5547,171.8098 152.0147,165.6498" fill="none" id="Alumno-to-CerrarSolicitudDispensa" style="stroke:#181818;stroke-width:1;"/><polygon fill="#181818" points="157.76,163.92,147.9889,162.6845,152.9723,165.3615,150.2953,170.3448,157.76,163.92" style="stroke:#181818;stroke-width:1;"/></g><!--link Alumno to GuardarSolicitudDispensa--><g class="link" data-entity-1="ent0002" data-entity-2="ent0008" data-link-type="dependency" data-source-line="20" id="lnk13"><path d="M44.8,188.44 C54.25,162.06 70.35,128.16 95.42,107 C109.03,95.51 120.2289,89.218 137.2289,83.248" fill="none" id="Alumno-to-GuardarSolicitudDispensa" style="stroke:#181818;stroke-width:1;"/><polygon fill="#181818" points="142.89,81.26,133.073,80.468,138.1724,82.9167,135.7238,88.0161,142.89,81.26" style="stroke:#181818;stroke-width:1;"/></g><!--SRC=[VP512W8n34NtFKMObIwyWY0g7i0JX3QEnTeEIReGyUvsHeKHM__sVHw_QQ2JWYPWtvyLd6UowbCqSl5nGCOh36WlsDDHRu5Wn1ZxGCQWrSIm2VaQap5Gycv2j_CoK1IK3kuJ6PE5B4gXbWdvc8AtNhFxT1VBhfHGO5l55KsAaeCYxqNHfM_Fb55MB_tQo7bjhIgUVHrNLX7p7y-sZdyzVKPsVqI71fzC3rFo-XbOhTQjayuRZJlDAgqJp2sDryqghTrF]--></g></svg>