<svg xmlns="http://www.w3.org/2000/svg" xmlns:xlink="http://www.w3.org/1999/xlink" version="1.1" data-diagram-type="SALT" style="width:578px;height:193px;background:#FFFFFF;" width="578px" height="193px" viewBox="0 0 578 193" zoomAndPan="magnify" preserveAspectRatio="none" contentStyleType="text/css"><?plantuml 1.2026.7beta5?><defs/><g font-family="sans-serif" lengthAdjust="spacing"><text x="6" y="17.139" fill="#000" font-size="12" textLength="127.723" font-weight="700">Portal del Profesor</text><text x="454" y="17.139" fill="#000" font-size="12" textLength="117.369">Toma de Asistencia</text><line x1="6" y1="24.469" x2="453" y2="24.469" style="stroke:#AAA;stroke-width:1;"/><line x1="6" y1="26.469" x2="453" y2="26.469" style="stroke:#AAA;stroke-width:1;"/><text x="7" y="42.107" fill="#000" font-size="12" textLength="68.227" font-weight="700">ID Sesión:</text><text x="87.867" y="42.107" fill="#000" font-size="12" textLength="50.051">SES-102</text><text x="7" y="58.076" fill="#000" font-size="12" textLength="78.867" font-weight="700">Asignatura:</text><text x="87.867" y="58.076" fill="#000" font-size="12" textLength="229.324">Ingeniería de Software II (18/05/2026)</text><line x1="6" y1="67.406" x2="453" y2="67.406" style="stroke:#AAA;stroke-width:1;"/><text x="6" y="83.045" fill="#000" font-size="12" textLength="116.197" font-weight="700">Lista de Alumnos</text><text x="7" y="100.014" fill="#000" font-size="12">#</text><text x="19.055" y="100.014" fill="#000" font-size="12" textLength="45.785">Alumno</text><text x="120.23" y="100.014" fill="#000" font-size="12" textLength="61.025">Asistencia</text><text x="7" y="115.982" fill="#000" font-size="12">1</text><text x="19.055" y="115.982" fill="#000" font-size="12" textLength="99.176">Mendoza, Carlos</text><text x="140.23" y="115.982" fill="#000" font-size="12" textLength="190.535">Presente () Ausente (X) Retraso</text><ellipse cx="127.23" cy="111.828" rx="5" ry="5" fill="none" style="stroke:#000;stroke-width:1.5;"/><text x="7" y="131.951" fill="#000" font-size="12">2</text><text x="19.055" y="131.951" fill="#000" font-size="12" textLength="76.283">López, María</text><text x="140.23" y="131.951" fill="#000" font-size="12" textLength="182.314">Presente () Ausente () Retraso</text><ellipse cx="127.23" cy="127.797" rx="5" ry="5" fill="none" style="stroke:#000;stroke-width:1.5;"/><ellipse cx="127.23" cy="127.797" rx="2" ry="2" fill="#000" style="stroke:#000;stroke-width:1.5;"/><text x="7" y="147.92" fill="#000" font-size="12">3</text><text x="19.055" y="147.92" fill="#000" font-size="12" textLength="70.881">Silva, Pedro</text><text x="140.23" y="147.92" fill="#000" font-size="12" textLength="190.535">Presente (X) Ausente () Retraso</text><ellipse cx="127.23" cy="143.766" rx="5" ry="5" fill="none" style="stroke:#000;stroke-width:1.5;"/><line x1="6" y1="157.25" x2="453" y2="157.25" style="stroke:#AAA;stroke-width:1;"/><rect x="9.5" y="165.25" width="212" height="17.969" fill="#EEE" style="stroke:#000;stroke-width:2.5;" rx="5" ry="5"/><text x="32.13" y="178.389" fill="#000" font-size="12" textLength="166.74" font-weight="700">Guardar Registro Parcial</text><rect x="228.5" y="165.25" width="220" height="17.969" fill="#EEE" style="stroke:#000;stroke-width:2.5;" rx="5" ry="5"/><text x="255.423" y="178.389" fill="#000" font-size="12" textLength="166.154" font-weight="700">Finalizar y Cerrar Sesión</text><line x1="5" y1="5" x2="453" y2="5" style="stroke:#000;stroke-width:1;"/><line x1="453" y1="5" x2="572.369" y2="5" style="stroke:#000;stroke-width:1;"/><line x1="5" y1="187.719" x2="453" y2="187.719" style="stroke:#000;stroke-width:1;"/><line x1="453" y1="187.719" x2="572.369" y2="187.719" style="stroke:#000;stroke-width:1;"/><line x1="5" y1="5" x2="5" y2="20.969" style="stroke:#000;stroke-width:1;"/><line x1="572.369" y1="28.969" x2="572.369" y2="62.906" style="stroke:#000;stroke-width:1;"/><line x1="572.369" y1="5" x2="572.369" y2="20.969" style="stroke:#000;stroke-width:1;"/><line x1="5" y1="160.75" x2="5" y2="187.719" style="stroke:#000;stroke-width:1;"/><line x1="5" y1="86.875" x2="5" y2="152.75" style="stroke:#000;stroke-width:1;"/><line x1="572.369" y1="160.75" x2="572.369" y2="187.719" style="stroke:#000;stroke-width:1;"/><line x1="5" y1="62.906" x2="5" y2="70.906" style="stroke:#000;stroke-width:1;"/><line x1="572.369" y1="86.875" x2="572.369" y2="152.75" style="stroke:#000;stroke-width:1;"/><line x1="5" y1="20.969" x2="5" y2="28.969" style="stroke:#000;stroke-width:1;"/><line x1="572.369" y1="62.906" x2="572.369" y2="70.906" style="stroke:#000;stroke-width:1;"/><line x1="572.369" y1="20.969" x2="572.369" y2="28.969" style="stroke:#000;stroke-width:1;"/><line x1="5" y1="152.75" x2="5" y2="160.75" style="stroke:#000;stroke-width:1;"/><line x1="5" y1="70.906" x2="5" y2="86.875" style="stroke:#000;stroke-width:1;"/><line x1="572.369" y1="152.75" x2="572.369" y2="160.75" style="stroke:#000;stroke-width:1;"/><line x1="5" y1="28.969" x2="5" y2="62.906" style="stroke:#000;stroke-width:1;"/><line x1="572.369" y1="70.906" x2="572.369" y2="86.875" style="stroke:#000;stroke-width:1;"/><?plantuml-src TP7RQi9048RlynG3lL7gAIcsfQWeza10GPfU2AKNOpDAODqjivkMUdYaNla8lbWd6oiMsi26OVR_PkQVxLk7x2mg5wpF0u3Eh3Snx511IWecREPa3SC6dimI9GS3crb7-ZL3KNUxyblByM1y2mdPRB_JDm8aTqazR4K_by8jDBgSiRYCzO9qHhp_yaKJCtSVo0Hn39NmkjbgDwDMT5aLU2kdNYyd6qdhSWYLBxMnn-PdKhBC5S7fX02XfCQaKxF26WoHbR6IgLJ575dIZefua1_2QHKUoJ5Qu-58fAFzxerMDHYZ7rU-ZTVzoV_6BuezPEfTEayePNE0JzdfF_3HT-dmkV3_a2EdoA9QY4KfDq4McwhJdFNWHIfxrNscKMKhqNt2a9WbE3nBgVF5jq5VTkBVFGWRnR8RLpDosFu6?></g></svg>