<svg xmlns="http://www.w3.org/2000/svg" xmlns:xlink="http://www.w3.org/1999/xlink" contentStyleType="text/css" data-diagram-type="STATE" height="583px" preserveAspectRatio="none" style="width:375px;height:583px;background:#FFFFFF;" version="1.1" viewBox="0 0 375 583" width="375px" zoomAndPan="magnify"><title>Cerrar Detalle Matr&#237;cula</title><defs/><g><g class="title" data-source-line="1"><text fill="#000000" font-family="sans-serif" font-size="14" font-weight="bold" lengthAdjust="spacing" textLength="190.3125" x="84.0938" y="22.9951">Cerrar Detalle Matr&#237;cula</text></g><g id="startState"><rect fill="#F1F1F1" height="50" rx="12.5" ry="12.5" style="stroke:#181818;stroke-width:0.5;" width="168.4766" x="100.5" y="44.2969"/><line style="stroke:#181818;stroke-width:0.5;" x1="100.5" x2="268.9766" y1="70.5938" y2="70.5938"/><text fill="#000000" font-family="sans-serif" font-size="14" lengthAdjust="spacing" textLength="148.4766" x="110.5" y="62.292">MATRICULA_ABIERTA</text></g><g id="endState"><rect fill="#F1F1F1" height="50" rx="12.5" ry="12.5" style="stroke:#181818;stroke-width:0.5;" width="178.8057" x="95" y="527.2969"/><line style="stroke:#181818;stroke-width:0.5;" x1="95" x2="273.8057" y1="553.5938" y2="553.5938"/><text fill="#000000" font-family="sans-serif" font-size="14" lengthAdjust="spacing" textLength="158.8057" x="105" y="545.292">MATRICULAS_ABIERTO</text></g><path d="M19.5,204.2969 L349.5,204.2969 A12.5,12.5 0 0 1 362,216.7969 L362,230.5938 L7,230.5938 L7,216.7969 A12.5,12.5 0 0 1 19.5,204.2969" fill="#F1F1F1"/><rect fill="none" height="262.2969" rx="12.5" ry="12.5" style="stroke:#181818;stroke-width:0.5;" width="355" x="7" y="204.2969"/><line style="stroke:#181818;stroke-width:0.5;" x1="7" x2="362" y1="230.5938" y2="230.5938"/><text fill="#000000" font-family="sans-serif" font-size="14" lengthAdjust="spacing" textLength="167.7676" x="100.6162" y="222.292">cerrarDetalleMatricula()</text><g id="cerrarDetalleMatricula.MuestraListado"><rect fill="#F1F1F1" height="50" rx="12.5" ry="12.5" style="stroke:#181818;stroke-width:0.5;" width="50" x="19" y="347.5938"/><line style="stroke:#181818;stroke-width:0.5;" x1="19" x2="69" y1="373.8906" y2="373.8906"/><text fill="#000000" font-family="sans-serif" font-size="14" lengthAdjust="spacing" textLength="4.4502" x="41.7749" y="365.5889">&#160;</text></g><ellipse cx="44" cy="251.5938" fill="#222222" rx="10" ry="10" style="stroke:#222222;stroke-width:1;"/><ellipse cx="44" cy="445.5938" fill="none" rx="11" ry="11" style="stroke:#222222;stroke-width:1;"/><ellipse cx="44" cy="445.5938" fill="#222222" rx="6" ry="6" style="stroke:#222222;stroke-width:1;"/><!--link *start*cerrarDetalleMatricula to MuestraListado--><g class="link" data-entity-1=".start.cerrarDetalleMatricula" data-entity-2="MuestraListado" data-source-line="18" data-uid="lnk4" id="link_.start.cerrarDetalleMatricula_MuestraListado"><path d="M44,261.9338 C44,280.1238 44,314.8338 44,341.2038" fill="none" id="*start*cerrarDetalleMatricula-to-MuestraListado" style="stroke:#008000;stroke-width:1;"/><polygon fill="#008000" points="44,347.2038,48,338.2038,44,342.2038,40,338.2038,44,347.2038" style="stroke:#008000;stroke-width:1;"/><path d="M49,284.5938 L49,324.5938 L353,324.5938 L353,294.5938 L343,284.5938 L49,284.5938" fill="#FEFFDD" style="stroke:#181818;stroke-width:0.5;"/><path d="M343,284.5938 L343,294.5938 L353,294.5938 L343,284.5938" fill="#FEFFDD" style="stroke:#181818;stroke-width:0.5;"/><text fill="#000000" font-family="sans-serif" font-size="13" font-weight="bold" lengthAdjust="spacing" textLength="128.7622" x="55" y="301.6606">Sistema presenta</text><text fill="#000000" font-family="sans-serif" font-size="13" lengthAdjust="spacing" textLength="283.7593" x="55" y="316.7935">la interfaz de listado general de matr&#237;culas.</text></g><!--link MuestraListado to *end*cerrarDetalleMatricula--><g class="link" data-entity-1="MuestraListado" data-entity-2=".end.cerrarDetalleMatricula" data-source-line="25" data-uid="lnk6" id="link_MuestraListado_.end.cerrarDetalleMatricula"><path d="M44,397.6337 C44,410.1838 44,418.8738 44,428.4438" fill="none" id="MuestraListado-to-*end*cerrarDetalleMatricula" style="stroke:#008000;stroke-width:1;"/><polygon fill="#008000" points="44,434.4438,48,425.4438,44,429.4438,40,425.4438,44,434.4438" style="stroke:#008000;stroke-width:1;"/></g><!--link startState to cerrarDetalleMatricula--><g class="link" data-entity-1="startState" data-entity-2="cerrarDetalleMatricula" data-source-line="8" data-uid="lnk2" id="link_startState_cerrarDetalleMatricula"><path d="M184.5,94.6569 C184.5,120.1869 184.5,156.3369 184.5,198.2269" fill="none" id="startState-to-cerrarDetalleMatricula" style="stroke:#008000;stroke-width:1;"/><polygon fill="#008000" points="184.5,204.2269,188.5,195.2269,184.5,199.2269,180.5,195.2269,184.5,204.2269" style="stroke:#008000;stroke-width:1;"/><path d="M189.5,129.2969 L189.5,169.2969 L365.5,169.2969 L365.5,139.2969 L355.5,129.2969 L189.5,129.2969" fill="#FEFFDD" style="stroke:#181818;stroke-width:0.5;"/><path d="M355.5,129.2969 L355.5,139.2969 L365.5,139.2969 L355.5,129.2969" fill="#FEFFDD" style="stroke:#181818;stroke-width:0.5;"/><text fill="#000000" font-family="sans-serif" font-size="13" font-weight="bold" lengthAdjust="spacing" textLength="113.3755" x="195.5" y="146.3638">Usuario solicita</text><text fill="#000000" font-family="sans-serif" font-size="13" lengthAdjust="spacing" textLength="155.835" x="195.5" y="161.4966">Cerrar Detalle Matr&#237;cula</text></g><!--link cerrarDetalleMatricula to endState--><g class="link" data-entity-1="cerrarDetalleMatricula" data-entity-2="endState" data-source-line="28" data-uid="lnk7" id="link_cerrarDetalleMatricula_endState"><path d="M184.5,466.3269 C184.5,489.6669 184.5,505.5369 184.5,521.2369" fill="none" id="cerrarDetalleMatricula-to-endState" style="stroke:#008000;stroke-width:1;"/><polygon fill="#008000" points="184.5,527.2369,188.5,518.2369,184.5,522.2369,180.5,518.2369,184.5,527.2369" style="stroke:#008000;stroke-width:1;"/></g><!--SRC=[TLBBQW914BplLpIRGnwW8Ja64JR6WA04V9n4GhksCZZEB3Ep1mtvf9po2VvOUjerQg9ps9tUhgwkAZQee0bQv1mwUA60ciiU1hVzoakDIUANoXJeS0LQ6GhhWg2mUXqBRWOC1FnqOI1Nz93sic6_qnfri_VikTFk3xEqmf6PdK4DAjXRAdnxfjhuQk68pAJMX5paLUgYE2NQZ6MSDL7OCW4-ZMbpv4jqoeAtMkKgOED-sfJUPOii2oBLtixvRIBwVElcDeKFMR8Zw9NaWyEkud9cPH3ON0HSmqCTEeQbsITeQ_2CeHM28zHgWn3tvBdQVXk1Z-yc9q6SCWlaNmXL48EAkN3aoHm54G-lKIQGc-C6PiIpEwKBCkHGnq-httnyNSOEAUryFDRXLHanaQEtSQRabz0Q2tDbn96W_mHox8WT9fz9SY7pO-J-x_a1]--></g></svg>