<svg xmlns="http://www.w3.org/2000/svg" xmlns:xlink="http://www.w3.org/1999/xlink" contentStyleType="text/css" data-diagram-type="STATE" height="942px" preserveAspectRatio="none" style="width:615px;height:942px;background:#FFFFFF;" version="1.1" viewBox="0 0 615 942" width="615px" zoomAndPan="magnify"><title>Crear Solicitud de Dispensa</title><defs/><g><g class="title" data-source-line="1"><text fill="#000000" font-family="sans-serif" font-size="14" font-weight="bold" lengthAdjust="spacing" textLength="218.2578" x="191.6211" y="22.9951">Crear Solicitud de Dispensa</text></g><g id="startState"><rect fill="#F1F1F1" height="50" rx="12.5" ry="12.5" style="stroke:#181818;stroke-width:0.5;" width="167.3623" x="198" y="44.2969"/><line style="stroke:#181818;stroke-width:0.5;" x1="198" x2="365.3623" y1="70.5938" y2="70.5938"/><text fill="#000000" font-family="sans-serif" font-size="14" lengthAdjust="spacing" textLength="147.3623" x="208" y="62.292">DISPENSAS_ABIERTO</text></g><g id="endState1"><rect fill="#F1F1F1" height="50" rx="12.5" ry="12.5" style="stroke:#181818;stroke-width:0.5;" width="239.3516" x="34" y="886.2969"/><line style="stroke:#181818;stroke-width:0.5;" x1="34" x2="273.3516" y1="912.5938" y2="912.5938"/><text fill="#000000" font-family="sans-serif" font-size="14" lengthAdjust="spacing" textLength="219.3516" x="44" y="904.292">SOLICITUD_DISPENSA_ABIERTA</text></g><g id="endState2"><rect fill="#F1F1F1" height="50" rx="12.5" ry="12.5" style="stroke:#181818;stroke-width:0.5;" width="167.3623" x="327" y="886.2969"/><line style="stroke:#181818;stroke-width:0.5;" x1="327" x2="494.3623" y1="912.5938" y2="912.5938"/><text fill="#000000" font-family="sans-serif" font-size="14" lengthAdjust="spacing" textLength="147.3623" x="337" y="904.292">DISPENSAS_ABIERTO</text></g><path d="M19.5,204.2969 L543.5,204.2969 A12.5,12.5 0 0 1 556,216.7969 L556,230.5938 L7,230.5938 L7,216.7969 A12.5,12.5 0 0 1 19.5,204.2969" fill="#F1F1F1"/><rect fill="none" height="587.2969" rx="12.5" ry="12.5" style="stroke:#181818;stroke-width:0.5;" width="549" x="7" y="204.2969"/><line style="stroke:#181818;stroke-width:0.5;" x1="7" x2="556" y1="230.5938" y2="230.5938"/><text fill="#000000" font-family="sans-serif" font-size="14" lengthAdjust="spacing" textLength="171.6025" x="195.6987" y="222.292">crearSolicitudDispensa()</text><g id="crearSolicitudDispensa.SolicitudDatos"><rect fill="#F1F1F1" height="50" rx="12.5" ry="12.5" style="stroke:#181818;stroke-width:0.5;" width="50" x="118" y="347.5938"/><line style="stroke:#181818;stroke-width:0.5;" x1="118" x2="168" y1="373.8906" y2="373.8906"/><text fill="#000000" font-family="sans-serif" font-size="14" lengthAdjust="spacing" textLength="4.4502" x="140.7749" y="365.5889">&#160;</text></g><g class="entity" data-entity="ValidarDatos" data-uid="ent0007" id="entity_ValidarDatos"><polygon fill="#F1F1F1" points="143,513.5938,155,525.5938,143,537.5938,131,525.5938,143,513.5938" style="stroke:#181818;stroke-width:0.5;"/></g><g id="crearSolicitudDispensa.CreacionExitosa"><rect fill="#F1F1F1" height="50" rx="12.5" ry="12.5" style="stroke:#181818;stroke-width:0.5;" width="50" x="118" y="623.5938"/><line style="stroke:#181818;stroke-width:0.5;" x1="118" x2="168" y1="649.8906" y2="649.8906"/><text fill="#000000" font-family="sans-serif" font-size="14" lengthAdjust="spacing" textLength="4.4502" x="140.7749" y="641.5889">&#160;</text></g><ellipse cx="143" cy="251.5938" fill="#222222" rx="10" ry="10" style="stroke:#222222;stroke-width:1;"/><ellipse cx="143" cy="770.5938" fill="none" rx="11" ry="11" style="stroke:#222222;stroke-width:1;"/><ellipse cx="143" cy="770.5938" fill="#222222" rx="6" ry="6" style="stroke:#222222;stroke-width:1;"/><!--link *start*crearSolicitudDispensa to SolicitudDatos--><g class="link" data-entity-1=".start.crearSolicitudDispensa" data-entity-2="SolicitudDatos" data-source-line="21" data-uid="lnk4" id="link_.start.crearSolicitudDispensa_SolicitudDatos"><path d="M143,261.9338 C143,280.1238 143,314.8338 143,341.2038" fill="none" id="*start*crearSolicitudDispensa-to-SolicitudDatos" style="stroke:#008000;stroke-width:1;"/><polygon fill="#008000" points="143,347.2038,147,338.2038,143,342.2038,139,338.2038,143,347.2038" style="stroke:#008000;stroke-width:1;"/><path d="M148,284.5938 L148,324.5938 L379,324.5938 L379,294.5938 L369,284.5938 L148,284.5938" fill="#FEFFDD" style="stroke:#181818;stroke-width:0.5;"/><path d="M369,284.5938 L369,294.5938 L379,294.5938 L369,284.5938" fill="#FEFFDD" style="stroke:#181818;stroke-width:0.5;"/><text fill="#000000" font-family="sans-serif" font-size="13" font-weight="bold" lengthAdjust="spacing" textLength="210.1138" x="154" y="301.6606">Sistema presenta formulario</text><text fill="#000000" font-family="sans-serif" font-size="13" lengthAdjust="spacing" textLength="136.3604" x="154" y="316.7935">para nueva solicitud.</text></g><!--link SolicitudDatos to ValidarDatos--><g class="link" data-entity-1="SolicitudDatos" data-entity-2="ValidarDatos" data-source-line="28" data-uid="lnk5" id="link_SolicitudDatos_ValidarDatos"><path d="M117.7,382.0938 C81.18,394.3638 18,415.5938 18,415.5938 C18,415.5938 18,495.5938 18,495.5938 C18,495.5938 99.5053,514.4976 128.1653,521.1476" fill="none" id="SolicitudDatos-to-ValidarDatos" style="stroke:#008000;stroke-width:1;"/><polygon fill="#008000" points="134.01,522.5038,126.147,516.573,129.1394,521.3736,124.3388,524.366,134.01,522.5038" style="stroke:#008000;stroke-width:1;"/><path d="M23,428.0938 L23,483.0938 L243,483.0938 L243,438.0938 L233,428.0938 L23,428.0938" fill="#FEFFDD" style="stroke:#181818;stroke-width:0.5;"/><path d="M233,428.0938 L233,438.0938 L243,438.0938 L233,428.0938" fill="#FEFFDD" style="stroke:#181818;stroke-width:0.5;"/><text fill="#000000" font-family="sans-serif" font-size="13" font-weight="bold" lengthAdjust="spacing" textLength="176.4839" x="29" y="445.1606">Usuario introduce datos</text><ellipse cx="34.5" cy="455.8594" fill="#000000" rx="2.5" ry="2.5"/><text fill="#000000" font-family="sans-serif" font-size="13" lengthAdjust="spacing" textLength="148.8081" x="41" y="460.2935">Nombre/ID, Asignatura</text><ellipse cx="34.5" cy="470.9922" fill="#000000" rx="2.5" ry="2.5"/><text fill="#000000" font-family="sans-serif" font-size="13" lengthAdjust="spacing" textLength="187.7319" x="41" y="475.4263">Motivo, Documentos, Fechas</text></g><!--link ValidarDatos to SolicitudDatos--><g class="link" data-entity-1="ValidarDatos" data-entity-2="SolicitudDatos" data-source-line="36" data-uid="lnk6" id="link_ValidarDatos_SolicitudDatos"><path d="M151.95,522.1238 C177.34,515.1038 248,495.5938 248,495.5938 C248,495.5938 248,415.5938 248,415.5938 C248,415.5938 204.7805,398.313 173.7205,385.883" fill="none" id="ValidarDatos-to-SolicitudDatos" style="stroke:#FF0000;stroke-width:1;"/><polygon fill="#FF0000" points="168.15,383.6538,175.0196,390.7113,172.7921,385.5115,177.9919,383.284,168.15,383.6538" style="stroke:#FF0000;stroke-width:1;"/><path d="M253,420.5938 L253,490.5938 L547,490.5938 L547,430.5938 L537,420.5938 L253,420.5938" fill="#FEFFDD" style="stroke:#181818;stroke-width:0.5;"/><path d="M537,420.5938 L537,430.5938 L547,430.5938 L537,420.5938" fill="#FEFFDD" style="stroke:#181818;stroke-width:0.5;"/><text fill="#000000" font-family="sans-serif" font-size="13" font-weight="bold" lengthAdjust="spacing" textLength="249.8818" x="259" y="437.6606">Sistema valida si el alumno existe</text><text fill="#000000" font-family="sans-serif" font-size="13" lengthAdjust="spacing" textLength="203.0933" x="259" y="452.7935">y que los datos sean correctos.</text><text fill="#000000" font-family="sans-serif" font-size="13" font-weight="bold" lengthAdjust="spacing" textLength="91.5522" x="259" y="467.9263">Si hay error:</text><text fill="#000000" font-family="sans-serif" font-size="13" lengthAdjust="spacing" textLength="273.6411" x="259" y="483.0591">Sistema informa error y vuelve a solicitar.</text></g><!--link ValidarDatos to CreacionExitosa--><g class="link" data-entity-1="ValidarDatos" data-entity-2="CreacionExitosa" data-source-line="45" data-uid="lnk7" id="link_ValidarDatos_CreacionExitosa"><path d="M143,537.7638 C143,557.0638 143,591.1138 143,617.1438" fill="none" id="ValidarDatos-to-CreacionExitosa" style="stroke:#008000;stroke-width:1;"/><polygon fill="#008000" points="143,623.1438,147,614.1438,143,618.1438,139,614.1438,143,623.1438" style="stroke:#008000;stroke-width:1;"/><path d="M148,560.5938 L148,600.5938 L325,600.5938 L325,570.5938 L315,560.5938 L148,560.5938" fill="#FEFFDD" style="stroke:#181818;stroke-width:0.5;"/><path d="M315,560.5938 L315,570.5938 L325,570.5938 L315,560.5938" fill="#FEFFDD" style="stroke:#181818;stroke-width:0.5;"/><text fill="#000000" font-family="sans-serif" font-size="13" font-weight="bold" lengthAdjust="spacing" textLength="156.9014" x="154" y="577.6606">Sistema valida y crea</text><text fill="#000000" font-family="sans-serif" font-size="13" lengthAdjust="spacing" textLength="74.1406" x="154" y="592.7935">la solicitud.</text></g><!--link CreacionExitosa to *end*crearSolicitudDispensa--><g class="link" data-entity-1="CreacionExitosa" data-entity-2=".end.crearSolicitudDispensa" data-source-line="52" data-uid="lnk9" id="link_CreacionExitosa_.end.crearSolicitudDispensa"><path d="M143,673.8738 C143,700.1737 143,734.8638 143,753.5738" fill="none" id="CreacionExitosa-to-*end*crearSolicitudDispensa" style="stroke:#008000;stroke-width:1;"/><polygon fill="#008000" points="143,759.5738,147,750.5738,143,754.5738,139,750.5738,143,759.5738" style="stroke:#008000;stroke-width:1;"/><path d="M148,696.5938 L148,736.5938 L375,736.5938 L375,706.5938 L365,696.5938 L148,696.5938" fill="#FEFFDD" style="stroke:#181818;stroke-width:0.5;"/><path d="M365,696.5938 L365,706.5938 L375,706.5938 L365,696.5938" fill="#FEFFDD" style="stroke:#181818;stroke-width:0.5;"/><text fill="#000000" font-family="sans-serif" font-size="13" font-weight="bold" lengthAdjust="spacing" textLength="206.4448" x="154" y="713.6606">Sistema confirma y muestra</text><text fill="#000000" font-family="sans-serif" font-size="13" lengthAdjust="spacing" textLength="189.1475" x="154" y="728.7935">la nueva solicitud registrada.</text></g><!--link startState to crearSolicitudDispensa--><g class="link" data-entity-1="startState" data-entity-2="crearSolicitudDispensa" data-source-line="9" data-uid="lnk2" id="link_startState_crearSolicitudDispensa"><path d="M281.5,94.4469 C281.5,118.5069 281.5,152.3269 281.5,197.8069" fill="none" id="startState-to-crearSolicitudDispensa" style="stroke:#008000;stroke-width:1;"/><polygon fill="#008000" points="281.5,203.8069,285.5,194.8069,281.5,198.8069,277.5,194.8069,281.5,203.8069" style="stroke:#008000;stroke-width:1;"/><path d="M286.5,129.2969 L286.5,169.2969 L550.5,169.2969 L550.5,139.2969 L540.5,129.2969 L286.5,129.2969" fill="#FEFFDD" style="stroke:#181818;stroke-width:0.5;"/><path d="M540.5,129.2969 L540.5,139.2969 L550.5,139.2969 L540.5,129.2969" fill="#FEFFDD" style="stroke:#181818;stroke-width:0.5;"/><text fill="#000000" font-family="sans-serif" font-size="13" font-weight="bold" lengthAdjust="spacing" textLength="137.2998" x="292.5" y="146.3638">Usuario selecciona</text><text fill="#000000" font-family="sans-serif" font-size="13" lengthAdjust="spacing" textLength="243.5786" x="292.5" y="161.4966">Crear/Registrar Solicitud de Dispensa</text></g><!--link crearSolicitudDispensa to endState1--><g class="link" data-entity-1="crearSolicitudDispensa" data-entity-2="endState1" data-source-line="60" data-uid="lnk10" id="link_crearSolicitudDispensa_endState1"><path d="M162.59,791.5369 C155.11,809.9569 150.5,821.2969 150.5,821.2969 C150.5,821.2969 150.5,856.2969 150.5,856.2969 C150.5,856.2969 151.0265,865.7762 151.8265,880.1462" fill="none" id="crearSolicitudDispensa-to-endState1" style="stroke:#008000;stroke-width:1;"/><polygon fill="#008000" points="152.16,886.1369,155.6535,876.9284,151.8821,881.1446,147.6659,877.3731,152.16,886.1369" style="stroke:#008000;stroke-width:1;"/><path d="M155.5,826.2969 L155.5,851.2969 L362.5,851.2969 L362.5,836.2969 L352.5,826.2969 L155.5,826.2969" fill="#FEFFDD" style="stroke:#181818;stroke-width:0.5;"/><path d="M352.5,826.2969 L352.5,836.2969 L362.5,836.2969 L352.5,826.2969" fill="#FEFFDD" style="stroke:#181818;stroke-width:0.5;"/><text fill="#000000" font-family="sans-serif" font-size="13" font-weight="bold" lengthAdjust="spacing" textLength="186.875" x="161.5" y="843.3638">editarSolicitudDispensa()</text></g><!--link crearSolicitudDispensa to endState2--><g class="link" data-entity-1="crearSolicitudDispensa" data-entity-2="endState2" data-source-line="65" data-uid="lnk11" id="link_crearSolicitudDispensa_endState2"><path d="M373.27,791.5469 C385.56,830.7469 394.4346,859.0518 401.1646,880.5118" fill="none" id="crearSolicitudDispensa-to-endState2" style="stroke:#008000;stroke-width:1;"/><polygon fill="#008000" points="402.96,886.2369,404.0836,876.4523,401.4638,881.466,396.4502,878.8462,402.96,886.2369" style="stroke:#008000;stroke-width:1;"/><path d="M396.5,826.2969 L396.5,851.2969 L608.5,851.2969 L608.5,836.2969 L598.5,826.2969 L396.5,826.2969" fill="#FEFFDD" style="stroke:#181818;stroke-width:0.5;"/><path d="M598.5,826.2969 L598.5,836.2969 L608.5,836.2969 L598.5,826.2969" fill="#FEFFDD" style="stroke:#181818;stroke-width:0.5;"/><text fill="#000000" font-family="sans-serif" font-size="13" font-weight="bold" lengthAdjust="spacing" textLength="191.2612" x="402.5" y="843.3638">Guardar/Cerrar Solicitud()</text></g><!--SRC=[dLJBRjf05DtxAwxe8Wy5KBAC4181KhbAGuGXcoYARkoRP9hn39qPerXH5rtsU_e9-R7EZ37OBhHDlK3Ozzp7EVTXcE44GqMe89ASnSna2IG48wON93H24EXd9XQeC0NE19byGR2GF7SlrcZG4DXVPIB_5pMqHc5qDRwC1j7Tu2mSJsUJrWf78l6eOm-B9XVXC9pDHtUbmme_Q473uMH7NF0LbBdRDnyU5P6uRVSXTfpMb4ewWP0M9uMZyXo0VNht_RdEK349cZZ5CPC2UztxlhTwPRfJUcJQg5qQ1RPAS85BERRdzXIsc_OFMl3g4nO1DW0qKdj7Q5NiryXPWggmzdhnasGnzViLX2lSKHc_C8l1CeH7xC5n1q9XCyXJk5AaIHW4ul0WLPfnfuN7tHpUrYIjL-KXlycvaZIoUb6Ai2YZRqAljNMFcoiG6IqHT1czuwqRJOkIJpfGzea9esIInGI95o2tdOF4Ikc2SOIbLoTcRp-5TsweMQLK5VAFX7Rahf4vX4kPtYlgXgCZ66ZsAD1a2YlspzAmfJo2aOoprEeYzH6SK_o4UYldThiDvnVpJnCONCp6qyl1BBoUmFvOAQdS05Q8GXkcyeiyS3xUkpOYbhAYv3zxM6G1pTo88CzI8O5UdB76FeUl6G6tsOgkQ481iLIAOllQgKU69yo178_JMf0o9nDkOB20sD3BZFZI7fToIb1r_gBOsTltA1nQjTv-k1Mm-boJIcYtGEkPQAoE1xz7gDplVuqMtptUw-ZDZQsMP3Vndog8fNXWJhSSqepSoMgMqTWrKAlJbc2Zhcz1i0SpXKAxEo58ku6B2eQ97OGXQka-pRKCTjoxAeFrvTzwWIbnBTro5dtvcoQ_8z79raGVxHRRfdU7Th2gvxoHwHS0]--></g></svg>