<svg xmlns="http://www.w3.org/2000/svg" xmlns:xlink="http://www.w3.org/1999/xlink" version="1.1" data-diagram-type="SALT" style="width:539px;height:201px;background:#FFFFFF;" width="539px" height="201px" viewBox="0 0 539 201" zoomAndPan="magnify" preserveAspectRatio="none" contentStyleType="text/css"><?plantuml 1.2026.7beta5?><defs/><g font-family="sans-serif" lengthAdjust="spacing"><text x="6" y="17.139" fill="#000" font-size="12" textLength="152.291" font-weight="700">Portal de la Secretaría</text><text x="360.094" y="17.139" fill="#000" font-size="12" textLength="172.471">Consultar Detalle de Alumno</text><line x1="6" y1="24.469" x2="359.094" y2="24.469" style="stroke:#AAA;stroke-width:1;"/><line x1="6" y1="26.469" x2="359.094" y2="26.469" style="stroke:#AAA;stroke-width:1;"/><text x="7" y="42.107" fill="#000" font-size="12" textLength="74.637" font-weight="700">ID Alumno:</text><text x="83.637" y="42.107" fill="#000" font-size="12" textLength="87.352">ALM-2023-045</text><text x="7" y="58.076" fill="#000" font-size="12" textLength="50.807" font-weight="700">Estado:</text><text x="83.637" y="58.076" fill="#008000" font-size="12" textLength="80.508" font-weight="700">Matriculado</text><line x1="6" y1="67.406" x2="359.094" y2="67.406" style="stroke:#AAA;stroke-width:1;"/><text x="6" y="83.045" fill="#000" font-size="12" textLength="184.998" font-weight="700">Información Administrativa</text><text x="7" y="100.014" fill="#000" font-size="12" textLength="126.094">Nombres Completos:</text><text x="138.094" y="100.014" fill="#000" font-size="12" textLength="95.361">Carlos Mendoza</text><line x1="136.094" y1="102.844" x2="339.094" y2="102.844" style="stroke:#000;stroke-width:1;"/><line x1="136.094" y1="99.844" x2="136.094" y2="101.844" style="stroke:#000;stroke-width:1;"/><line x1="339.094" y1="99.844" x2="339.094" y2="101.844" style="stroke:#000;stroke-width:1;"/><text x="7" y="117.982" fill="#000" font-size="12" textLength="97.646">DNI / Pasaporte:</text><text x="138.094" y="117.982" fill="#000" font-size="12" textLength="76.348">1712345678</text><line x1="136.094" y1="120.813" x2="331.094" y2="120.813" style="stroke:#000;stroke-width:1;"/><line x1="136.094" y1="117.813" x2="136.094" y2="119.813" style="stroke:#000;stroke-width:1;"/><line x1="331.094" y1="117.813" x2="331.094" y2="119.813" style="stroke:#000;stroke-width:1;"/><text x="7" y="135.951" fill="#000" font-size="12" textLength="121.482">Correo Institucional:</text><text x="138.094" y="135.951" fill="#000" font-size="12" textLength="188.297">cmendoza@estudiantes.edu.ec</text><line x1="136.094" y1="138.781" x2="355.094" y2="138.781" style="stroke:#000;stroke-width:1;"/><line x1="136.094" y1="135.781" x2="136.094" y2="137.781" style="stroke:#000;stroke-width:1;"/><line x1="355.094" y1="135.781" x2="355.094" y2="137.781" style="stroke:#000;stroke-width:1;"/><text x="7" y="153.92" fill="#000" font-size="12" textLength="49.313">Carrera:</text><text x="138.094" y="153.92" fill="#000" font-size="12" textLength="136.078">Ingeniería en Software</text><line x1="136.094" y1="156.75" x2="331.094" y2="156.75" style="stroke:#000;stroke-width:1;"/><line x1="136.094" y1="153.75" x2="136.094" y2="155.75" style="stroke:#000;stroke-width:1;"/><line x1="331.094" y1="153.75" x2="331.094" y2="155.75" style="stroke:#000;stroke-width:1;"/><line x1="6" y1="165.25" x2="359.094" y2="165.25" style="stroke:#AAA;stroke-width:1;"/><rect x="9.5" y="173.25" width="172" height="17.969" fill="#EEE" style="stroke:#000;stroke-width:2.5;" rx="5" ry="5"/><text x="50.143" y="186.389" fill="#000" font-size="12" textLength="90.715">Cerrar Detalles</text><line x1="5" y1="5" x2="359.094" y2="5" style="stroke:#000;stroke-width:1;"/><line x1="359.094" y1="5" x2="533.564" y2="5" style="stroke:#000;stroke-width:1;"/><line x1="5" y1="195.719" x2="359.094" y2="195.719" style="stroke:#000;stroke-width:1;"/><line x1="359.094" y1="195.719" x2="533.564" y2="195.719" style="stroke:#000;stroke-width:1;"/><line x1="5" y1="5" x2="5" y2="20.969" style="stroke:#000;stroke-width:1;"/><line x1="533.564" y1="28.969" x2="533.564" y2="62.906" style="stroke:#000;stroke-width:1;"/><line x1="533.564" y1="5" x2="533.564" y2="20.969" style="stroke:#000;stroke-width:1;"/><line x1="5" y1="168.75" x2="5" y2="195.719" style="stroke:#000;stroke-width:1;"/><line x1="5" y1="86.875" x2="5" y2="160.75" style="stroke:#000;stroke-width:1;"/><line x1="533.564" y1="168.75" x2="533.564" y2="195.719" style="stroke:#000;stroke-width:1;"/><line x1="5" y1="62.906" x2="5" y2="70.906" style="stroke:#000;stroke-width:1;"/><line x1="533.564" y1="86.875" x2="533.564" y2="160.75" style="stroke:#000;stroke-width:1;"/><line x1="5" y1="20.969" x2="5" y2="28.969" style="stroke:#000;stroke-width:1;"/><line x1="533.564" y1="62.906" x2="533.564" y2="70.906" style="stroke:#000;stroke-width:1;"/><line x1="533.564" y1="20.969" x2="533.564" y2="28.969" style="stroke:#000;stroke-width:1;"/><line x1="5" y1="160.75" x2="5" y2="168.75" style="stroke:#000;stroke-width:1;"/><line x1="5" y1="70.906" x2="5" y2="86.875" style="stroke:#000;stroke-width:1;"/><line x1="533.564" y1="160.75" x2="533.564" y2="168.75" style="stroke:#000;stroke-width:1;"/><line x1="5" y1="28.969" x2="5" y2="62.906" style="stroke:#000;stroke-width:1;"/><line x1="533.564" y1="70.906" x2="533.564" y2="86.875" style="stroke:#000;stroke-width:1;"/><?plantuml-src LP7FQW8n4CRl-nI3rx9R_rj4HT4U5ge87aiFOtQKG3QHIRQ5MX-ffpw2BzOnQvK64iZCzyitCvdwW1mycf0S7nA0qNQoTXpGG45W43Qac4Ho_aRuWhcplZ9oXOK4ZQ6BQcQgqZfXnsCvZhBZC_dYcXaAE7jPfkrckvCskxq_mRDO5p4hbv5onl5mpqHsiiJ0MbL6qgF7c9W8T9ATfdMDkTqvBb7fyu-5ML5ggtrW3FeTRpMiNBbbyb9qUJ0KdBzODUR8ndbOaYtS9y9zDIAqMENm26lqU90nK4HQWrQxq-tr1q_mRzN4t36JWzpwe4EbjBDe8gRAscDAFbI5HXl8PrHK6QahYK8oHd5kzsGrnJcJXOtRXGzagarkdTUDlLvOOhv_WvV8MnIUagcunlzCMfcCl9yDjYBg_G80?></g></svg>