<svg xmlns="http://www.w3.org/2000/svg" xmlns:xlink="http://www.w3.org/1999/xlink" version="1.1" data-diagram-type="SALT" style="width:614px;height:173px;background:#FFFFFF;" width="614px" height="173px" viewBox="0 0 614 173" zoomAndPan="magnify" preserveAspectRatio="none" contentStyleType="text/css"><?plantuml 1.2026.7beta5?><defs/><g font-family="sans-serif" lengthAdjust="spacing"><text x="6" y="17.139" fill="#000" font-size="12" textLength="152.291" font-weight="700">Portal de la Secretaría</text><text x="420.063" y="17.139" fill="#000" font-size="12" textLength="187.002">Exportar Reporte de Dispensas</text><line x1="6" y1="24.469" x2="419.063" y2="24.469" style="stroke:#AAA;stroke-width:1;"/><line x1="6" y1="26.469" x2="419.063" y2="26.469" style="stroke:#AAA;stroke-width:1;"/><text x="6" y="41.107" fill="#000" font-size="12" textLength="241.189" font-weight="700">Parámetros de Exportación General</text><line x1="6" y1="49.438" x2="419.063" y2="49.438" style="stroke:#AAA;stroke-width:1;"/><text x="7" y="66.076" fill="#000" font-size="12" textLength="102.967">Ciclo Académico:</text><rect x="131.063" y="54.938" width="223" height="16.969" fill="#EEE" style="stroke:#000;stroke-width:1;"/><text x="133.063" y="68.076" fill="#000" font-size="12" textLength="183.17">2025-2026 Segundo Semestre</text><line x1="343.063" y1="54.938" x2="343.063" y2="71.906" style="stroke:#000;stroke-width:1;"/><polygon points="346.063,60.938,352.063,60.938,349.063,66.906" fill="#000" style="stroke:#000;stroke-width:1;stroke-linejoin:miter;stroke-miterlimit:10;"/><text x="7" y="86.045" fill="#000" font-size="12" textLength="98.074">Estado de Filtro:</text><rect x="131.063" y="74.906" width="127" height="16.969" fill="#EEE" style="stroke:#000;stroke-width:1;"/><text x="133.063" y="88.045" fill="#000" font-size="12" textLength="93.744">Solo Aprobadas</text><line x1="247.063" y1="74.906" x2="247.063" y2="91.875" style="stroke:#000;stroke-width:1;"/><polygon points="250.063,80.906,256.063,80.906,253.063,86.875" fill="#000" style="stroke:#000;stroke-width:1;stroke-linejoin:miter;stroke-miterlimit:10;"/><text x="7" y="106.014" fill="#000" font-size="12" textLength="107.021">Rango de Fechas:</text><text x="134.063" y="106.014" fill="#000" font-size="12" textLength="230.42">Desde: 01/01/2026 Hasta: 30/06/2026</text><line x1="132.063" y1="108.844" x2="415.063" y2="108.844" style="stroke:#000;stroke-width:1;"/><line x1="132.063" y1="105.844" x2="132.063" y2="107.844" style="stroke:#000;stroke-width:1;"/><line x1="415.063" y1="105.844" x2="415.063" y2="107.844" style="stroke:#000;stroke-width:1;"/><text x="7" y="123.982" fill="#000" font-size="12" textLength="122.063">Formato de Archivo:</text><rect x="131.063" y="112.844" width="231" height="16.969" fill="#EEE" style="stroke:#000;stroke-width:1;"/><text x="133.063" y="125.982" fill="#000" font-size="12" textLength="158.256">Excel (.xlsx) - Consolidado</text><line x1="351.063" y1="112.844" x2="351.063" y2="129.813" style="stroke:#000;stroke-width:1;"/><polygon points="354.063,118.844,360.063,118.844,357.063,124.813" fill="#000" style="stroke:#000;stroke-width:1;stroke-linejoin:miter;stroke-miterlimit:10;"/><line x1="6" y1="137.313" x2="419.063" y2="137.313" style="stroke:#AAA;stroke-width:1;"/><rect x="9.5" y="145.313" width="212" height="17.969" fill="#EEE" style="stroke:#000;stroke-width:2.5;" rx="5" ry="5"/><text x="24.829" y="158.451" fill="#000" font-size="12" textLength="181.342" font-weight="700">Generar Reporte Completo</text><rect x="228.5" y="145.313" width="116" height="17.969" fill="#EEE" style="stroke:#000;stroke-width:2.5;" rx="5" ry="5"/><text x="260.03" y="158.451" fill="#000" font-size="12" textLength="52.939">Cancelar</text><line x1="5" y1="5" x2="419.063" y2="5" style="stroke:#000;stroke-width:1;"/><line x1="419.063" y1="5" x2="608.064" y2="5" style="stroke:#000;stroke-width:1;"/><line x1="5" y1="167.781" x2="419.063" y2="167.781" style="stroke:#000;stroke-width:1;"/><line x1="419.063" y1="167.781" x2="608.064" y2="167.781" style="stroke:#000;stroke-width:1;"/><line x1="5" y1="5" x2="5" y2="20.969" style="stroke:#000;stroke-width:1;"/><line x1="608.064" y1="28.969" x2="608.064" y2="44.938" style="stroke:#000;stroke-width:1;"/><line x1="608.064" y1="5" x2="608.064" y2="20.969" style="stroke:#000;stroke-width:1;"/><line x1="5" y1="132.813" x2="5" y2="140.813" style="stroke:#000;stroke-width:1;"/><line x1="5" y1="44.938" x2="5" y2="52.938" style="stroke:#000;stroke-width:1;"/><line x1="608.064" y1="132.813" x2="608.064" y2="140.813" style="stroke:#000;stroke-width:1;"/><line x1="5" y1="20.969" x2="5" y2="28.969" style="stroke:#000;stroke-width:1;"/><line x1="608.064" y1="44.938" x2="608.064" y2="52.938" style="stroke:#000;stroke-width:1;"/><line x1="608.064" y1="20.969" x2="608.064" y2="28.969" style="stroke:#000;stroke-width:1;"/><line x1="5" y1="140.813" x2="5" y2="167.781" style="stroke:#000;stroke-width:1;"/><line x1="5" y1="52.938" x2="5" y2="132.813" style="stroke:#000;stroke-width:1;"/><line x1="608.064" y1="140.813" x2="608.064" y2="167.781" style="stroke:#000;stroke-width:1;"/><line x1="5" y1="28.969" x2="5" y2="44.938" style="stroke:#000;stroke-width:1;"/><line x1="608.064" y1="52.938" x2="608.064" y2="132.813" style="stroke:#000;stroke-width:1;"/><?plantuml-src LL7DQW8n4BxlKmoUMigwgqKBegBuqnwB7aLXDXbq8PiiILeMh0_JOmyzzH5yiKwoGYaaap3vVYOpC-VHUeVA9-U7161SJ5-DzQX04YY4BGbB3Bb-8tp0ggd3euKDXGi5qB9qDMc7ZjcJoKs22PyLUMjSWDneehp-Q7WcJHOL0zEKmvatmA8Koi1SeBn-LQKm8pOxzFF-8EKmv2gERreQFYjotj8XabPSEoVPO5qgzegahGb2jJK5IdGjS8FwsE98dD05N6T9Jj88ybx6Avgy8EkDu37Fyc7CT29vRMo5FjBdLfpAzzPdrGXISDTjb6lk8OM5qSweKd95mVJo_t-xq9Nsvt_DMvYgLkJDE2kci6VHNUW4QXPc5C0-wboI6MaP9vJqkg6kxbF18ndy0W00?></g></svg>