<svg xmlns="http://www.w3.org/2000/svg" xmlns:xlink="http://www.w3.org/1999/xlink" version="1.1" data-diagram-type="SALT" style="width:911px;height:175px;background:#FFFFFF;" width="911px" height="175px" viewBox="0 0 911 175" zoomAndPan="magnify" preserveAspectRatio="none" contentStyleType="text/css"><?plantuml 1.2026.7beta5?><defs/><g font-family="sans-serif" lengthAdjust="spacing"><text x="6" y="17.139" fill="#000" font-size="12" textLength="152.291" font-weight="700">Portal de la Secretaría</text><text x="787.225" y="17.139" fill="#000" font-size="12" textLength="117.75">Importar Matrículas</text><line x1="6" y1="24.469" x2="786.225" y2="24.469" style="stroke:#AAA;stroke-width:1;"/><line x1="6" y1="26.469" x2="786.225" y2="26.469" style="stroke:#AAA;stroke-width:1;"/><text x="6" y="41.107" fill="#000" font-size="12" textLength="291.018" font-weight="700">Carga Masiva de Matrículas (Asignaciones)</text><line x1="6" y1="49.438" x2="786.225" y2="49.438" style="stroke:#AAA;stroke-width:1;"/><text x="6" y="65.076" fill="#000" font-size="12" textLength="140.285" font-weight="700">Selección de Archivo</text><text x="7" y="82.045" fill="#000" font-size="12" textLength="114.949">Formato Aceptado:</text><text x="485.004" y="82.045" fill="#000" font-size="12" textLength="177.029">Excel (.xls, .xlsx) o CSV (.csv)</text><text x="7" y="98.014" fill="#000" font-size="12" textLength="112.113">Archivo de Origen:</text><text x="485.004" y="98.014" fill="#000" font-size="12" textLength="299.221">[ Seleccionar Archivo... ] matriculas_2026_S2.xlsx</text><text x="7" y="113.982" fill="#000" font-size="12" textLength="86.297" font-weight="700">Advertencia:</text><text x="7" y="129.951" fill="#000" font-size="12" textLength="476.004">Los alumnos y asignaturas deben estar registrados previamente en el sistema.</text><line x1="6" y1="139.281" x2="786.225" y2="139.281" style="stroke:#AAA;stroke-width:1;"/><rect x="9.5" y="147.281" width="292" height="17.969" fill="#EEE" style="stroke:#000;stroke-width:2.5;" rx="5" ry="5"/><text x="36.748" y="160.42" fill="#000" font-size="12" textLength="237.504" font-weight="700">Ejecutar Importación de Matrículas</text><rect x="308.5" y="147.281" width="116" height="17.969" fill="#EEE" style="stroke:#000;stroke-width:2.5;" rx="5" ry="5"/><text x="340.03" y="160.42" fill="#000" font-size="12" textLength="52.939">Cancelar</text><line x1="5" y1="5" x2="786.225" y2="5" style="stroke:#000;stroke-width:1;"/><line x1="786.225" y1="5" x2="905.975" y2="5" style="stroke:#000;stroke-width:1;"/><line x1="5" y1="169.75" x2="786.225" y2="169.75" style="stroke:#000;stroke-width:1;"/><line x1="786.225" y1="169.75" x2="905.975" y2="169.75" style="stroke:#000;stroke-width:1;"/><line x1="5" y1="5" x2="5" y2="20.969" style="stroke:#000;stroke-width:1;"/><line x1="905.975" y1="28.969" x2="905.975" y2="44.938" style="stroke:#000;stroke-width:1;"/><line x1="905.975" y1="5" x2="905.975" y2="20.969" style="stroke:#000;stroke-width:1;"/><line x1="5" y1="142.781" x2="5" y2="169.75" style="stroke:#000;stroke-width:1;"/><line x1="5" y1="68.906" x2="5" y2="134.781" style="stroke:#000;stroke-width:1;"/><line x1="905.975" y1="142.781" x2="905.975" y2="169.75" style="stroke:#000;stroke-width:1;"/><line x1="5" y1="44.938" x2="5" y2="52.938" style="stroke:#000;stroke-width:1;"/><line x1="905.975" y1="68.906" x2="905.975" y2="134.781" style="stroke:#000;stroke-width:1;"/><line x1="5" y1="20.969" x2="5" y2="28.969" style="stroke:#000;stroke-width:1;"/><line x1="905.975" y1="44.938" x2="905.975" y2="52.938" style="stroke:#000;stroke-width:1;"/><line x1="905.975" y1="20.969" x2="905.975" y2="28.969" style="stroke:#000;stroke-width:1;"/><line x1="5" y1="134.781" x2="5" y2="142.781" style="stroke:#000;stroke-width:1;"/><line x1="5" y1="52.938" x2="5" y2="68.906" style="stroke:#000;stroke-width:1;"/><line x1="905.975" y1="134.781" x2="905.975" y2="142.781" style="stroke:#000;stroke-width:1;"/><line x1="5" y1="28.969" x2="5" y2="44.938" style="stroke:#000;stroke-width:1;"/><line x1="905.975" y1="52.938" x2="905.975" y2="68.906" style="stroke:#000;stroke-width:1;"/><?plantuml-src JL71IWCn4BtlLyonHRjgGONIbYwbWg0eB7WffSncXpMIJKgINIgrd-J9J-YFESckqaCIo9ltPjwRXVDelKFbayD50Z0jvg_6UbHG4YY4d8GbBZbz8tp1OxqBe8LdzFmb6eMEIRDPnroYhP0n9riC_BCg66HELXg5D9hSaEj7euwKao8XvEb71qfcnRji3KC7FW0FnjRe3MI2TXvBC-4fLdj12WRfNhbB2FT-20QM-Hl_2TSE8x4N2felLbQa0tCDVJUZsKHVagOfR82xM1b7tOwlntVRV1oLerQyUDIiRCbwqaBYP7fLp3lWoJX0rTIQtq_0QDCtbZsNL9062X63fKewRzc2WvsbLc9DsXE40WMECQenPS7ZNpPT0ElGUFL1eWag_GB-upfBE0wqYIO1bgWv8oO0RABcCLcGBkEUaviqE4pl2rxixIy0?></g></svg>