<svg xmlns="http://www.w3.org/2000/svg" xmlns:xlink="http://www.w3.org/1999/xlink" version="1.1" data-diagram-type="SALT" style="width:602px;height:143px;background:#FFFFFF;" width="602px" height="143px" viewBox="0 0 602 143" zoomAndPan="magnify" preserveAspectRatio="none" contentStyleType="text/css"><?plantuml 1.2026.7beta5?><defs/><g font-family="sans-serif" lengthAdjust="spacing"><text x="6" y="17.139" fill="#000" font-size="12" textLength="152.291" font-weight="700">Portal de la Secretaría</text><text x="430" y="17.139" fill="#000" font-size="12" textLength="165.176">Importar Listas de Alumnos</text><line x1="6" y1="24.469" x2="429" y2="24.469" style="stroke:#AAA;stroke-width:1;"/><line x1="6" y1="26.469" x2="429" y2="26.469" style="stroke:#AAA;stroke-width:1;"/><text x="6" y="41.107" fill="#000" font-size="12" textLength="237.697" font-weight="700">Carga Masiva de Alumnos (Padrón)</text><line x1="6" y1="49.438" x2="429" y2="49.438" style="stroke:#AAA;stroke-width:1;"/><text x="6" y="65.076" fill="#000" font-size="12" textLength="140.285" font-weight="700">Selección de Archivo</text><text x="7" y="82.045" fill="#000" font-size="12" textLength="114.949">Formato Aceptado:</text><text x="123.949" y="82.045" fill="#000" font-size="12" textLength="177.029">Excel (.xls, .xlsx) o CSV (.csv)</text><text x="7" y="98.014" fill="#000" font-size="12" textLength="112.113">Archivo de Origen:</text><text x="123.949" y="98.014" fill="#000" font-size="12" textLength="283.406">[ Seleccionar Archivo... ] alumnos_2026_S2.csv</text><line x1="6" y1="107.344" x2="429" y2="107.344" style="stroke:#AAA;stroke-width:1;"/><rect x="9.5" y="115.344" width="164" height="17.969" fill="#EEE" style="stroke:#000;stroke-width:2.5;" rx="5" ry="5"/><text x="29.408" y="128.482" fill="#000" font-size="12" textLength="124.184" font-weight="700">Validar e Importar</text><rect x="180.5" y="115.344" width="244" height="17.969" fill="#EEE" style="stroke:#000;stroke-width:2.5;" rx="5" ry="5"/><text x="229.448" y="128.482" fill="#000" font-size="12" textLength="146.104">Descargar Plantilla Base</text><line x1="5" y1="5" x2="429" y2="5" style="stroke:#000;stroke-width:1;"/><line x1="429" y1="5" x2="596.176" y2="5" style="stroke:#000;stroke-width:1;"/><line x1="5" y1="137.813" x2="429" y2="137.813" style="stroke:#000;stroke-width:1;"/><line x1="429" y1="137.813" x2="596.176" y2="137.813" style="stroke:#000;stroke-width:1;"/><line x1="5" y1="5" x2="5" y2="20.969" style="stroke:#000;stroke-width:1;"/><line x1="596.176" y1="28.969" x2="596.176" y2="44.938" style="stroke:#000;stroke-width:1;"/><line x1="596.176" y1="5" x2="596.176" y2="20.969" style="stroke:#000;stroke-width:1;"/><line x1="5" y1="110.844" x2="5" y2="137.813" style="stroke:#000;stroke-width:1;"/><line x1="5" y1="68.906" x2="5" y2="102.844" style="stroke:#000;stroke-width:1;"/><line x1="596.176" y1="110.844" x2="596.176" y2="137.813" style="stroke:#000;stroke-width:1;"/><line x1="5" y1="44.938" x2="5" y2="52.938" style="stroke:#000;stroke-width:1;"/><line x1="596.176" y1="68.906" x2="596.176" y2="102.844" style="stroke:#000;stroke-width:1;"/><line x1="5" y1="20.969" x2="5" y2="28.969" style="stroke:#000;stroke-width:1;"/><line x1="596.176" y1="44.938" x2="596.176" y2="52.938" style="stroke:#000;stroke-width:1;"/><line x1="596.176" y1="20.969" x2="596.176" y2="28.969" style="stroke:#000;stroke-width:1;"/><line x1="5" y1="102.844" x2="5" y2="110.844" style="stroke:#000;stroke-width:1;"/><line x1="5" y1="52.938" x2="5" y2="68.906" style="stroke:#000;stroke-width:1;"/><line x1="596.176" y1="102.844" x2="596.176" y2="110.844" style="stroke:#000;stroke-width:1;"/><line x1="5" y1="28.969" x2="5" y2="44.938" style="stroke:#000;stroke-width:1;"/><line x1="596.176" y1="52.938" x2="596.176" y2="68.906" style="stroke:#000;stroke-width:1;"/><?plantuml-src JL3DIiD04BxdAUROe5qre8AqfRKg28g1G2-bbCbcg0kRtRAxXa3j8tdo4VfYpYPHFEmUvlkPRxwv3-Y2HnsImra2C2bdkNK1DLG46g4WwOWffo-4JtYkzn5qyA9OvoDdeJzgOprBfzDUlqItGtX5hnhynu1HZfKxVPkKQUDnpor8avIAfntJoNVLM8OE_02UhAinM5X8sWUix1r7U6mbQHY9LljpY7-RWeLbiUAPz4tQ2GUZwFdcr8vCLAvXs6ODNp1GX12m0UmZRhFBx6PRPD68VOw_GViqwnXuXLfLBAU_BYONvOmjeZ_00taPptUGQpH1QQxm7ZqnjEaSZycSJDNrdLo9k4_SbbpmzGy0?></g></svg>